<?xml version="1.0" encoding="UTF-8"?>
<!DOCTYPE svg PUBLIC "-//W3C//DTD SVG 1.1//EN" "http://www.w3.org/Graphics/SVG/1.1/DTD/svg11.dtd">
<svg xmlns="http://www.w3.org/2000/svg" version="1.1" width="1024px" height="1024px" style="shape-rendering:geometricPrecision; text-rendering:geometricPrecision; image-rendering:optimizeQuality; fill-rule:evenodd; clip-rule:evenodd" xmlns:xlink="http://www.w3.org/1999/xlink">
<g><path style="opacity:1" fill="#fefefe" d="M -0.5,-0.5 C 340.833,-0.5 682.167,-0.5 1023.5,-0.5C 1023.5,340.833 1023.5,682.167 1023.5,1023.5C 682.167,1023.5 340.833,1023.5 -0.5,1023.5C -0.5,682.167 -0.5,340.833 -0.5,-0.5 Z"/></g>
<g><path style="opacity:1" fill="#5753c7" d="M 575.5,80.5 C 576.95,88.0798 577.617,95.7465 577.5,103.5C 575.021,160.564 570.021,217.397 562.5,274C 571.206,292.933 578.706,312.433 585,332.5C 593.043,361.151 595.043,390.151 591,419.5C 584.888,433.942 576.054,446.442 564.5,457C 535.295,481.603 501.961,498.269 464.5,507C 371.008,526.192 280.675,516.525 193.5,478C 178.106,470.649 163.773,461.816 150.5,451.5C 149.066,448.953 147.4,446.619 145.5,444.5C 141.946,436.84 139.613,428.84 138.5,420.5C 137.209,420.737 136.209,420.404 135.5,419.5C 137.176,418.817 137.843,417.483 137.5,415.5C 137.287,400.148 137.62,384.814 138.5,369.5C 142.893,338.146 152.06,308.146 166,279.5C 165.536,239.505 165.536,199.505 166,159.5C 166.546,135.797 169.546,112.464 175,89.5C 176.302,85.7257 178.469,82.559 181.5,80C 185.5,79.3333 189.5,79.3333 193.5,80C 205.347,84.2571 216.68,89.5904 227.5,96C 258.6,115.105 288.6,135.772 317.5,158C 319.366,158.985 321.366,159.485 323.5,159.5C 352.645,154.271 381.978,153.104 411.5,156C 420.478,157.59 429.478,158.59 438.5,159C 471.529,133.316 506.196,109.983 542.5,89C 549.534,85.9917 556.534,82.9917 563.5,80C 567.689,79.1881 571.689,79.3547 575.5,80.5 Z"/></g>
<g><path style="opacity:1" fill="#353f78" d="M 575.5,80.5 C 579.379,82.2055 581.879,85.2055 583,89.5C 585.622,98.3646 587.455,107.365 588.5,116.5C 588.596,122.373 589.263,128.04 590.5,133.5C 592.799,181.81 593.132,230.143 591.5,278.5C 605.653,307.297 614.987,337.63 619.5,369.5C 640.431,364.351 661.431,359.351 682.5,354.5C 695.057,357.281 698.89,364.614 694,376.5C 692.786,378.049 691.286,379.215 689.5,380C 667.326,385.968 644.992,391.302 622.5,396C 621.712,403.778 621.045,411.611 620.5,419.5C 643.226,424.348 665.893,429.515 688.5,435C 698.38,442.172 699.046,450.172 690.5,459C 687.592,459.993 684.592,460.493 681.5,460.5C 658.399,455.642 635.399,450.308 612.5,444.5C 608.447,451.395 603.78,457.895 598.5,464C 614.351,480.883 629.851,498.05 645,515.5C 648.224,526.71 644.057,533.377 632.5,535.5C 629.972,535.237 627.639,534.404 625.5,533C 609.611,516.781 594.111,500.281 579,483.5C 534.717,515.492 485.217,534.325 430.5,540C 401.835,540.5 373.169,540.667 344.5,540.5C 283.235,538.589 228.068,519.589 179,483.5C 163.202,499.634 147.702,516.134 132.5,533C 117.886,537.047 111.053,531.547 112,516.5C 127.716,498.905 143.55,481.405 159.5,464C 156.613,459.716 153.613,455.549 150.5,451.5C 163.773,461.816 178.106,470.649 193.5,478C 280.675,516.525 371.008,526.192 464.5,507C 501.961,498.269 535.295,481.603 564.5,457C 576.054,446.442 584.888,433.942 591,419.5C 595.043,390.151 593.043,361.151 585,332.5C 578.706,312.433 571.206,292.933 562.5,274C 570.021,217.397 575.021,160.564 577.5,103.5C 577.617,95.7465 576.95,88.0798 575.5,80.5 Z"/></g>
<g><path style="opacity:1" fill="#adb0c3" d="M 588.5,116.5 C 590.012,121.929 590.679,127.596 590.5,133.5C 589.263,128.04 588.596,122.373 588.5,116.5 Z"/></g>
<g><path style="opacity:1" fill="#d4d7ef" d="M 269.5,185.5 C 269.5,194.833 269.5,204.167 269.5,213.5C 276.833,213.5 284.167,213.5 291.5,213.5C 301.156,217.155 303.989,223.821 300,233.5C 297.703,236.98 294.536,238.98 290.5,239.5C 283.5,239.5 276.5,239.5 269.5,239.5C 269.5,248.833 269.5,258.167 269.5,267.5C 267.619,278.122 261.286,282.289 250.5,280C 246.857,278.195 244.524,275.362 243.5,271.5C 243.5,260.833 243.5,250.167 243.5,239.5C 235.833,239.5 228.167,239.5 220.5,239.5C 211.385,235.595 208.551,228.928 212,219.5C 214.264,216.567 217.098,214.4 220.5,213C 227.826,212.5 235.159,212.334 242.5,212.5C 242.333,201.828 242.5,191.161 243,180.5C 250.514,169.378 258.848,168.712 268,178.5C 269.202,180.677 269.702,183.011 269.5,185.5 Z"/></g>
<g><path style="opacity:1" fill="#7e7bd3" d="M 269.5,185.5 C 270.493,194.318 270.827,203.318 270.5,212.5C 277.687,212.175 284.687,212.509 291.5,213.5C 284.167,213.5 276.833,213.5 269.5,213.5C 269.5,204.167 269.5,194.833 269.5,185.5 Z"/></g>
<g><path style="opacity:1" fill="#b4b5e5" d="M 220.5,239.5 C 228.167,239.5 235.833,239.5 243.5,239.5C 243.5,250.167 243.5,260.833 243.5,271.5C 242.506,261.347 242.172,251.014 242.5,240.5C 234.981,240.825 227.648,240.492 220.5,239.5 Z"/></g>
<g><path style="opacity:1" fill="#7e7cd2" d="M 290.5,239.5 C 284.021,240.491 277.354,240.824 270.5,240.5C 270.827,249.682 270.493,258.682 269.5,267.5C 269.5,258.167 269.5,248.833 269.5,239.5C 276.5,239.5 283.5,239.5 290.5,239.5 Z"/></g>
<g><path style="opacity:1" fill="#5752c7" d="M 862.5,306.5 C 862.389,307.117 862.056,307.617 861.5,308C 891.369,347.536 912.869,391.369 926,439.5C 946.824,520.187 951.491,601.854 940,684.5C 933.525,733.094 917.859,778.427 893,820.5C 847.591,890.215 782.924,924.548 699,923.5C 640.62,922.943 583.453,914.443 527.5,898C 496.178,889.002 464.845,880.002 433.5,871C 395.392,861.248 356.725,857.915 317.5,861C 277.424,867.545 241.757,883.545 210.5,909C 197.167,921 184.5,933.667 172.5,947C 168.347,950.575 164.014,953.909 159.5,957C 150.836,961.833 141.836,962.666 132.5,959.5C 127.939,952.201 126.439,944.201 128,935.5C 148.339,884.675 181.172,843.841 226.5,813C 260.824,792.173 298.157,780.673 338.5,778.5C 346.657,779.329 354.99,779.829 363.5,780C 362.833,780.333 362.167,780.667 361.5,781C 368.37,781.477 375.037,780.977 381.5,779.5C 382.167,779.5 382.833,779.5 383.5,779.5C 391.651,780.851 399.984,781.851 408.5,782.5C 432.332,786.262 455.999,791.429 479.5,798C 510.794,806.992 542.128,815.992 573.5,825C 605.758,832.807 638.425,838.14 671.5,841C 683.167,841.667 694.833,841.667 706.5,841C 713.927,837.983 717.093,832.483 716,824.5C 714.098,819.6 710.598,816.433 705.5,815C 656.558,814.431 608.558,807.431 561.5,794C 515.151,779.217 468.151,766.884 420.5,757C 416.833,756.063 413.499,756.563 410.5,758.5C 407.663,731.15 400.163,705.15 388,680.5C 371.776,653.052 359.109,624.052 350,593.5C 346.138,576.03 344.305,558.364 344.5,540.5C 373.169,540.667 401.835,540.5 430.5,540C 485.217,534.325 534.717,515.492 579,483.5C 594.111,500.281 609.611,516.781 625.5,533C 627.639,534.404 629.972,535.237 632.5,535.5C 644.057,533.377 648.224,526.71 645,515.5C 629.851,498.05 614.351,480.883 598.5,464C 603.78,457.895 608.447,451.395 612.5,444.5C 635.399,450.308 658.399,455.642 681.5,460.5C 684.592,460.493 687.592,459.993 690.5,459C 699.046,450.172 698.38,442.172 688.5,435C 665.893,429.515 643.226,424.348 620.5,419.5C 621.045,411.611 621.712,403.778 622.5,396C 644.992,391.302 667.326,385.968 689.5,380C 691.286,379.215 692.786,378.049 694,376.5C 698.89,364.614 695.057,357.281 682.5,354.5C 661.431,359.351 640.431,364.351 619.5,369.5C 614.987,337.63 605.653,307.297 591.5,278.5C 646.261,255.265 703.261,247.432 762.5,255C 800.379,263.763 833.712,280.929 862.5,306.5 Z"/></g>
<g><path style="opacity:1" fill="#d3d5ee" d="M 305.5,266.5 C 319.474,265.973 325.64,272.64 324,286.5C 318.624,295.828 311.124,297.994 301.5,293C 295.512,287.953 294.012,281.786 297,274.5C 299.157,271.024 301.99,268.357 305.5,266.5 Z"/></g>
<g><path style="opacity:1" fill="#353e78" d="M 862.5,306.5 C 899.057,339.574 926.223,379.241 944,425.5C 968.267,494.047 977.6,564.713 972,637.5C 968.932,702.642 952.265,763.975 922,821.5C 882.73,892.724 822.897,934.724 742.5,947.5C 732.66,948.211 722.993,949.211 713.5,950.5C 697.84,949.914 682.173,949.581 666.5,949.5C 631.483,946.897 596.817,941.73 562.5,934C 514.209,920.179 465.876,906.846 417.5,894C 390.503,887.977 363.17,885.477 335.5,886.5C 330.269,886.444 325.269,887.111 320.5,888.5C 297.825,891.225 276.492,898.059 256.5,909C 229.3,926.128 204.967,946.794 183.5,971C 162.964,982.764 145.964,978.931 132.5,959.5C 141.836,962.666 150.836,961.833 159.5,957C 164.014,953.909 168.347,950.575 172.5,947C 184.5,933.667 197.167,921 210.5,909C 241.757,883.545 277.424,867.545 317.5,861C 356.725,857.915 395.392,861.248 433.5,871C 464.845,880.002 496.178,889.002 527.5,898C 583.453,914.443 640.62,922.943 699,923.5C 782.924,924.548 847.591,890.215 893,820.5C 917.859,778.427 933.525,733.094 940,684.5C 951.491,601.854 946.824,520.187 926,439.5C 912.869,391.369 891.369,347.536 861.5,308C 862.056,307.617 862.389,307.117 862.5,306.5 Z"/></g>
<g><path style="opacity:1" fill="#61b08c" d="M 236.5,324.5 C 256.263,324.056 274.596,328.889 291.5,339C 303.609,348.456 311.775,360.623 316,375.5C 317.914,383.562 319.08,391.729 319.5,400C 320.638,409.787 316.304,413.62 306.5,411.5C 259.065,409.065 234.399,384.065 232.5,336.5C 232.667,333.833 232.833,331.167 233,328.5C 233.69,326.65 234.856,325.316 236.5,324.5 Z"/></g>
<g><path style="opacity:1" fill="#61b08c" d="M 506.5,324.5 C 511.511,324.334 516.511,324.501 521.5,325C 524.907,327.245 526.24,330.412 525.5,334.5C 522.826,388.805 494.493,413.972 440.5,410C 436.672,387.816 441.506,367.649 455,349.5C 469.019,334.573 486.186,326.24 506.5,324.5 Z"/></g>
<g><path style="opacity:1" fill="#61b08c" d="M 808.5,359.5 C 808.5,369.5 808.5,379.5 808.5,389.5C 815.833,389.5 823.167,389.5 830.5,389.5C 840.808,393.981 843.308,401.315 838,411.5C 835.742,413.43 833.242,414.93 830.5,416C 823.174,416.5 815.841,416.666 808.5,416.5C 808.933,427.91 808.433,439.244 807,450.5C 799.6,459.241 791.934,459.574 784,451.5C 783.138,449.913 782.471,448.246 782,446.5C 781.5,436.506 781.334,426.506 781.5,416.5C 773.083,416.906 764.749,416.406 756.5,415C 749.993,410.797 747.826,404.964 750,397.5C 751.833,394.333 754.333,391.833 757.5,390C 765.493,389.5 773.493,389.334 781.5,389.5C 781.067,378.09 781.567,366.756 783,355.5C 789.437,347.485 796.771,346.485 805,352.5C 806.705,354.577 807.872,356.91 808.5,359.5 Z"/></g>
<g><path style="opacity:1" fill="#363f79" d="M 138.5,369.5 C 137.62,384.814 137.287,400.148 137.5,415.5C 136.833,409.321 136.167,402.988 135.5,396.5C 113.128,391.215 90.7944,385.715 68.5,380C 61.2894,374.812 59.7894,368.312 64,360.5C 66.6906,357.072 70.1906,355.072 74.5,354.5C 95.7792,359.82 117.113,364.82 138.5,369.5 Z"/></g>
<g><path style="opacity:1" fill="#5970bc" d="M 808.5,359.5 C 809.494,368.986 809.827,378.652 809.5,388.5C 816.687,388.175 823.687,388.509 830.5,389.5C 823.167,389.5 815.833,389.5 808.5,389.5C 808.5,379.5 808.5,369.5 808.5,359.5 Z"/></g>
<g><path style="opacity:1" fill="#353e78" d="M 135.5,419.5 C 136.209,420.404 137.209,420.737 138.5,420.5C 139.613,428.84 141.946,436.84 145.5,444.5C 121.796,450.384 97.9628,455.717 74,460.5C 64.3766,458.947 60.3766,453.28 62,443.5C 63.4421,439.725 65.9421,436.892 69.5,435C 91.4775,429.502 113.478,424.336 135.5,419.5 Z"/></g>
<g><path style="opacity:1" fill="#e86a81" d="M 843.5,463.5 C 847.817,464.32 850.317,466.987 851,471.5C 854.891,485.287 857.891,499.287 860,513.5C 861.561,521.415 863.895,529.082 867,536.5C 868.579,538.041 870.413,539.208 872.5,540C 888.142,544.077 903.476,549.077 918.5,555C 919.574,555.739 920.241,556.739 920.5,558C 919.561,559.944 918.227,561.611 916.5,563C 902.797,568.26 888.797,572.593 874.5,576C 871.241,577.211 868.408,579.044 866,581.5C 861.08,598.58 857.08,615.913 854,633.5C 852.333,638.833 850.667,644.167 849,649.5C 848.363,651.303 847.197,652.636 845.5,653.5C 843.282,652.076 841.782,650.076 841,647.5C 837.03,632.648 833.696,617.648 831,602.5C 829.464,595.354 827.464,588.354 825,581.5C 823.786,579.951 822.286,578.785 820.5,578C 806.5,573.667 792.5,569.333 778.5,565C 768.347,561.105 768.014,556.771 777.5,552C 793.408,547.983 808.908,542.816 824,536.5C 826.794,528.995 829.127,521.328 831,513.5C 833.118,501.459 835.451,489.459 838,477.5C 839.356,472.589 841.19,467.923 843.5,463.5 Z"/></g>
<g><path style="opacity:1" fill="#61b08c" d="M 438.5,636.5 C 445.833,636.5 453.167,636.5 460.5,636.5C 460.5,626.5 460.5,616.5 460.5,606.5C 465.389,594.731 473.222,592.397 484,599.5C 485,601.167 486,602.833 487,604.5C 487.5,615.161 487.667,625.828 487.5,636.5C 495.507,636.334 503.507,636.5 511.5,637C 519.444,641.506 521.611,648.006 518,656.5C 516.127,658.709 513.96,660.542 511.5,662C 503.571,663.363 495.571,663.863 487.5,663.5C 487.931,674.578 487.431,685.578 486,696.5C 483.657,701.671 479.657,704.005 474,703.5C 468.343,704.005 464.343,701.671 462,696.5C 460.569,685.578 460.069,674.578 460.5,663.5C 452.083,663.906 443.749,663.406 435.5,662C 426.674,654.271 426.341,646.271 434.5,638C 435.745,637.209 437.078,636.709 438.5,636.5 Z"/></g>
<g><path style="opacity:1" fill="#5968be" d="M 460.5,606.5 C 460.5,616.5 460.5,626.5 460.5,636.5C 453.167,636.5 445.833,636.5 438.5,636.5C 445.313,635.509 452.313,635.175 459.5,635.5C 459.173,625.652 459.506,615.986 460.5,606.5 Z"/></g>
<g><path style="opacity:1" fill="#d4d6ef" d="M 772.5,664.5 C 793.604,665.436 803.77,676.436 803,697.5C 796.44,716.364 783.606,722.864 764.5,717C 749.574,708.223 745.407,695.723 752,679.5C 756.749,671.575 763.583,666.575 772.5,664.5 Z"/></g>
<g><path style="opacity:1" fill="#e86a81" d="M 521.5,691.5 C 539.127,692.921 543.793,701.421 535.5,717C 527.866,722.075 520.699,721.575 514,715.5C 508.672,704.862 511.172,696.862 521.5,691.5 Z"/></g>
<g><path style="opacity:1" fill="#d3d6ef" d="M 683.5,738.5 C 698.317,737.476 704.484,744.143 702,758.5C 697.605,766.103 691.105,768.603 682.5,766C 674.897,761.605 672.397,755.105 675,746.5C 677.074,742.923 679.907,740.256 683.5,738.5 Z"/></g>
<g><path style="opacity:1" fill="#353f78" d="M 408.5,782.5 C 409.5,782.5 410.5,782.5 411.5,782.5C 411.698,774.466 411.365,766.466 410.5,758.5C 413.499,756.563 416.833,756.063 420.5,757C 468.151,766.884 515.151,779.217 561.5,794C 608.558,807.431 656.558,814.431 705.5,815C 710.598,816.433 714.098,819.6 716,824.5C 717.093,832.483 713.927,837.983 706.5,841C 694.833,841.667 683.167,841.667 671.5,841C 638.425,838.14 605.758,832.807 573.5,825C 542.128,815.992 510.794,806.992 479.5,798C 455.999,791.429 432.332,786.262 408.5,782.5 Z"/></g>
<g><path style="opacity:1" fill="#483ec6" d="M 338.5,778.5 C 340.833,778.5 343.167,778.5 345.5,778.5C 357.508,778.591 369.508,778.925 381.5,779.5C 375.037,780.977 368.37,781.477 361.5,781C 362.167,780.667 362.833,780.333 363.5,780C 354.99,779.829 346.657,779.329 338.5,778.5 Z"/></g>
<g><path style="opacity:1" fill="#cbcaeb" d="M 345.5,778.5 C 358.198,777.181 370.864,777.514 383.5,779.5C 382.833,779.5 382.167,779.5 381.5,779.5C 369.508,778.925 357.508,778.591 345.5,778.5 Z"/></g>
<g><path style="opacity:1" fill="#b0b3c5" d="M 335.5,886.5 C 330.731,887.889 325.731,888.556 320.5,888.5C 325.269,887.111 330.269,886.444 335.5,886.5 Z"/></g>
<g><path style="opacity:1" fill="#b2b4c6" d="M 742.5,947.5 C 733.106,949.74 723.44,950.74 713.5,950.5C 722.993,949.211 732.66,948.211 742.5,947.5 Z"/></g>
<g><path style="opacity:1" fill="#d6d8e2" d="M 666.5,949.5 C 682.173,949.581 697.84,949.914 713.5,950.5C 697.812,951.714 682.146,951.38 666.5,949.5 Z"/></g>
</svg>
